<mxfile host="65bd71144e">
    <diagram id="DjnRh_6N26p2DBxKlrE3" name="Página-1">
        <mxGraphModel dx="961" dy="481" grid="1" gridSize="10" guides="1" tooltips="1" connect="1" arrows="1" fold="1" page="1" pageScale="1" pageWidth="1169" pageHeight="827" math="0" shadow="0">
            <root>
                <mxCell id="0"/>
                <mxCell id="1" parent="0"/>
                <mxCell id="77" value="view" style="shape=folder;fontStyle=1;tabWidth=110;tabHeight=30;tabPosition=left;html=1;boundedLbl=1;labelInHeader=1;container=1;collapsible=0;recursiveResize=0;glass=0;labelBackgroundColor=default;labelBorderColor=none;comic=0;pointerEvents=0;fontSize=23;strokeColor=#d79b00;gradientDirection=south;fillColor=#ffe6cc;gradientColor=#ffffff;shadow=1;rounded=0;" parent="1" vertex="1">
                    <mxGeometry x="10" y="240" width="520" height="570" as="geometry"/>
                </mxCell>
                <object label="Principal" id="29">
                    <mxCell style="swimlane;fontStyle=1;align=center;verticalAlign=top;childLayout=stackLayout;horizontal=1;startSize=26;horizontalStack=0;resizeParent=1;resizeParentMax=0;resizeLast=0;collapsible=1;marginBottom=0;rounded=0;" parent="77" vertex="1">
                        <mxGeometry x="80" y="190" width="390" height="372" as="geometry"/>
                    </mxCell>
                </object>
                <mxCell id="30" value="- gerente: Matriz_controle" style="text;strokeColor=none;fillColor=none;align=left;verticalAlign=top;spacingLeft=4;spacingRight=4;overflow=hidden;rotatable=0;points=[[0,0.5],[1,0.5]];portConstraint=eastwest;rounded=0;" parent="29" vertex="1">
                    <mxGeometry y="26" width="390" height="26" as="geometry"/>
                </mxCell>
                <mxCell id="31" value="" style="line;strokeWidth=1;fillColor=none;align=left;verticalAlign=middle;spacingTop=-1;spacingLeft=3;spacingRight=3;rotatable=0;labelPosition=right;points=[];portConstraint=eastwest;rounded=0;" parent="29" vertex="1">
                    <mxGeometry y="52" width="390" height="8" as="geometry"/>
                </mxCell>
                <object label="+ diagonal_prin_view(M: str): " id="32">
                    <mxCell style="text;strokeColor=none;fillColor=none;align=left;verticalAlign=top;spacingLeft=4;spacingRight=4;overflow=hidden;rotatable=0;points=[[0,0.5],[1,0.5]];portConstraint=eastwest;rounded=0;" parent="29" vertex="1">
                        <mxGeometry y="60" width="390" height="26" as="geometry"/>
                    </mxCell>
                </object>
                <mxCell id="33" value="+ diagonal_sec_view(M: Matriz): " style="text;strokeColor=none;fillColor=none;align=left;verticalAlign=top;spacingLeft=4;spacingRight=4;overflow=hidden;rotatable=0;points=[[0,0.5],[1,0.5]];portConstraint=eastwest;rounded=0;" parent="29" vertex="1">
                    <mxGeometry y="86" width="390" height="26" as="geometry"/>
                </mxCell>
                <mxCell id="34" value="+ elemento_matriz_produto_view(): " style="text;strokeColor=none;fillColor=none;align=left;verticalAlign=top;spacingLeft=4;spacingRight=4;overflow=hidden;rotatable=0;points=[[0,0.5],[1,0.5]];portConstraint=eastwest;rounded=0;" parent="29" vertex="1">
                    <mxGeometry y="112" width="390" height="26" as="geometry"/>
                </mxCell>
                <mxCell id="35" value="+ subtrair_view():" style="text;strokeColor=none;fillColor=none;align=left;verticalAlign=top;spacingLeft=4;spacingRight=4;overflow=hidden;rotatable=0;points=[[0,0.5],[1,0.5]];portConstraint=eastwest;rounded=0;" parent="29" vertex="1">
                    <mxGeometry y="138" width="390" height="26" as="geometry"/>
                </mxCell>
                <mxCell id="36" value="+ somar_view(): " style="text;strokeColor=none;fillColor=none;align=left;verticalAlign=top;spacingLeft=4;spacingRight=4;overflow=hidden;rotatable=0;points=[[0,0.5],[1,0.5]];portConstraint=eastwest;rounded=0;" parent="29" vertex="1">
                    <mxGeometry y="164" width="390" height="26" as="geometry"/>
                </mxCell>
                <mxCell id="37" value="+ transpor_view(M: str): " style="text;strokeColor=none;fillColor=none;align=left;verticalAlign=top;spacingLeft=4;spacingRight=4;overflow=hidden;rotatable=0;points=[[0,0.5],[1,0.5]];portConstraint=eastwest;rounded=0;" parent="29" vertex="1">
                    <mxGeometry y="190" width="390" height="26" as="geometry"/>
                </mxCell>
                <mxCell id="38" value="+ multiplicar_view(): " style="text;strokeColor=none;fillColor=none;align=left;verticalAlign=top;spacingLeft=4;spacingRight=4;overflow=hidden;rotatable=0;points=[[0,0.5],[1,0.5]];portConstraint=eastwest;rounded=0;" parent="29" vertex="1">
                    <mxGeometry y="216" width="390" height="26" as="geometry"/>
                </mxCell>
                <mxCell id="39" value="+ capturar_matriz_gui(text_edit: QTextEdit): Matriz" style="text;strokeColor=none;fillColor=none;align=left;verticalAlign=top;spacingLeft=4;spacingRight=4;overflow=hidden;rotatable=0;points=[[0,0.5],[1,0.5]];portConstraint=eastwest;rounded=0;" parent="29" vertex="1">
                    <mxGeometry y="242" width="390" height="26" as="geometry"/>
                </mxCell>
                <mxCell id="92" value="+ mostrar_msg_erro(msg: str): " style="text;strokeColor=none;fillColor=none;align=left;verticalAlign=top;spacingLeft=4;spacingRight=4;overflow=hidden;rotatable=0;points=[[0,0.5],[1,0.5]];portConstraint=eastwest;rounded=0;" parent="29" vertex="1">
                    <mxGeometry y="268" width="390" height="26" as="geometry"/>
                </mxCell>
                <mxCell id="93" value="+ mostrar_msg_sucesso(msg: str): " style="text;strokeColor=none;fillColor=none;align=left;verticalAlign=top;spacingLeft=4;spacingRight=4;overflow=hidden;rotatable=0;points=[[0,0.5],[1,0.5]];portConstraint=eastwest;rounded=0;" parent="29" vertex="1">
                    <mxGeometry y="294" width="390" height="26" as="geometry"/>
                </mxCell>
                <mxCell id="94" value="+ imprimir_saida(texto: str): " style="text;strokeColor=none;fillColor=none;align=left;verticalAlign=top;spacingLeft=4;spacingRight=4;overflow=hidden;rotatable=0;points=[[0,0.5],[1,0.5]];portConstraint=eastwest;rounded=0;" parent="29" vertex="1">
                    <mxGeometry y="320" width="390" height="26" as="geometry"/>
                </mxCell>
                <mxCell id="99" value="+ det_laplace_view(M: str): " style="text;strokeColor=none;fillColor=none;align=left;verticalAlign=top;spacingLeft=4;spacingRight=4;overflow=hidden;rotatable=0;points=[[0,0.5],[1,0.5]];portConstraint=eastwest;rounded=0;fontStyle=0" vertex="1" parent="29">
                    <mxGeometry y="346" width="390" height="26" as="geometry"/>
                </mxCell>
                <mxCell id="69" value="QMainWindow" style="swimlane;fontStyle=0;childLayout=stackLayout;horizontal=1;startSize=26;horizontalStack=0;resizeParent=1;resizeParentMax=0;resizeLast=0;collapsible=1;marginBottom=0;glass=0;labelBackgroundColor=default;labelBorderColor=none;rounded=0;" parent="77" vertex="1">
                    <mxGeometry x="108" y="79" width="140" height="52" as="geometry"/>
                </mxCell>
                <mxCell id="63" value="Extends" style="endArrow=block;endSize=16;endFill=0;html=1;exitX=0.25;exitY=0;exitDx=0;exitDy=0;entryX=0.5;entryY=1;entryDx=0;entryDy=0;fontColor=none;noLabel=1;rounded=0;" parent="77" source="29" target="69" edge="1">
                    <mxGeometry x="0.0714" y="15" width="160" relative="1" as="geometry">
                        <mxPoint x="562.5" y="-40" as="sourcePoint"/>
                        <mxPoint x="340" y="-130" as="targetPoint"/>
                        <mxPoint as="offset"/>
                    </mxGeometry>
                </mxCell>
                <mxCell id="65" value="Ui_MainWindow" style="swimlane;fontStyle=0;childLayout=stackLayout;horizontal=1;startSize=26;horizontalStack=0;resizeParent=1;resizeParentMax=0;resizeLast=0;collapsible=1;marginBottom=0;glass=0;labelBackgroundColor=default;labelBorderColor=none;rounded=0;" parent="77" vertex="1">
                    <mxGeometry x="302" y="78" width="140" height="52" as="geometry"/>
                </mxCell>
                <mxCell id="62" value="Extends" style="endArrow=block;endSize=16;endFill=0;html=1;exitX=0.75;exitY=0;exitDx=0;exitDy=0;entryX=0.5;entryY=1;entryDx=0;entryDy=0;fontColor=none;noLabel=1;rounded=0;" parent="77" source="29" target="65" edge="1">
                    <mxGeometry width="160" relative="1" as="geometry">
                        <mxPoint x="320" y="-140" as="sourcePoint"/>
                        <mxPoint x="530" y="-120" as="targetPoint"/>
                    </mxGeometry>
                </mxCell>
                <mxCell id="79" value="controller" style="shape=folder;fontStyle=1;tabWidth=130;tabHeight=30;tabPosition=left;html=1;boundedLbl=1;labelInHeader=1;container=1;collapsible=0;recursiveResize=0;glass=0;labelBackgroundColor=default;labelBorderColor=none;comic=0;pointerEvents=0;fontSize=23;strokeColor=#d6b656;gradientDirection=south;fillColor=#fff2cc;gradientColor=#ffffff;shadow=1;rounded=0;" parent="1" vertex="1">
                    <mxGeometry x="550" y="6" width="430" height="364" as="geometry"/>
                </mxCell>
                <object label="#Matriz_controle" id="11">
                    <mxCell style="swimlane;fontStyle=1;align=center;verticalAlign=top;childLayout=stackLayout;horizontal=1;startSize=26;horizontalStack=0;resizeParent=1;resizeParentMax=0;resizeLast=0;collapsible=1;marginBottom=0;rounded=0;" parent="79" vertex="1">
                        <mxGeometry x="20" y="56" width="390" height="294" as="geometry"/>
                    </mxCell>
                </object>
                <mxCell id="12" value="- erro: str" style="text;strokeColor=none;fillColor=none;align=left;verticalAlign=top;spacingLeft=4;spacingRight=4;overflow=hidden;rotatable=0;points=[[0,0.5],[1,0.5]];portConstraint=eastwest;rounded=0;" parent="11" vertex="1">
                    <mxGeometry y="26" width="390" height="26" as="geometry"/>
                </mxCell>
                <mxCell id="16" value="" style="line;strokeWidth=1;fillColor=none;align=left;verticalAlign=middle;spacingTop=-1;spacingLeft=3;spacingRight=3;rotatable=0;labelPosition=right;points=[];portConstraint=eastwest;rounded=0;" parent="11" vertex="1">
                    <mxGeometry y="52" width="390" height="8" as="geometry"/>
                </mxCell>
                <object label="+ somar_diagonal_principal(M: Matriz): float" id="17">
                    <mxCell style="text;strokeColor=none;fillColor=none;align=left;verticalAlign=top;spacingLeft=4;spacingRight=4;overflow=hidden;rotatable=0;points=[[0,0.5],[1,0.5]];portConstraint=eastwest;rounded=0;" parent="11" vertex="1">
                        <mxGeometry y="60" width="390" height="26" as="geometry"/>
                    </mxCell>
                </object>
                <mxCell id="18" value="+ somar_diagonal_secundaria(M: Matriz): float" style="text;strokeColor=none;fillColor=none;align=left;verticalAlign=top;spacingLeft=4;spacingRight=4;overflow=hidden;rotatable=0;points=[[0,0.5],[1,0.5]];portConstraint=eastwest;rounded=0;" parent="11" vertex="1">
                    <mxGeometry y="86" width="390" height="26" as="geometry"/>
                </mxCell>
                <mxCell id="23" value="+ calcular_elemento_matriz_produto(i:int, j:int,A: Matriz, B:Matriz): float" style="text;strokeColor=none;fillColor=none;align=left;verticalAlign=top;spacingLeft=4;spacingRight=4;overflow=hidden;rotatable=0;points=[[0,0.5],[1,0.5]];portConstraint=eastwest;rounded=0;" parent="11" vertex="1">
                    <mxGeometry y="112" width="390" height="26" as="geometry"/>
                </mxCell>
                <mxCell id="24" value="+ subtrair_matrizes(A: Matriz, B:Matriz): Matriz" style="text;strokeColor=none;fillColor=none;align=left;verticalAlign=top;spacingLeft=4;spacingRight=4;overflow=hidden;rotatable=0;points=[[0,0.5],[1,0.5]];portConstraint=eastwest;rounded=0;" parent="11" vertex="1">
                    <mxGeometry y="138" width="390" height="26" as="geometry"/>
                </mxCell>
                <mxCell id="25" value="+ somar_matrizes(A: Matriz, B:Matriz): Matriz" style="text;strokeColor=none;fillColor=none;align=left;verticalAlign=top;spacingLeft=4;spacingRight=4;overflow=hidden;rotatable=0;points=[[0,0.5],[1,0.5]];portConstraint=eastwest;rounded=0;" parent="11" vertex="1">
                    <mxGeometry y="164" width="390" height="26" as="geometry"/>
                </mxCell>
                <mxCell id="26" value="+ transpor_matrizes(A: Matriz): Matriz" style="text;strokeColor=none;fillColor=none;align=left;verticalAlign=top;spacingLeft=4;spacingRight=4;overflow=hidden;rotatable=0;points=[[0,0.5],[1,0.5]];portConstraint=eastwest;rounded=0;" parent="11" vertex="1">
                    <mxGeometry y="190" width="390" height="26" as="geometry"/>
                </mxCell>
                <mxCell id="27" value="+ multiplicar_matrizes(A: Matriz, B:Matriz): Matriz" style="text;strokeColor=none;fillColor=none;align=left;verticalAlign=top;spacingLeft=4;spacingRight=4;overflow=hidden;rotatable=0;points=[[0,0.5],[1,0.5]];portConstraint=eastwest;rounded=0;" parent="11" vertex="1">
                    <mxGeometry y="216" width="390" height="26" as="geometry"/>
                </mxCell>
                <mxCell id="28" value="+ converter_texto_para_matriz(matriz_texto: str): Matriz" style="text;strokeColor=none;fillColor=none;align=left;verticalAlign=top;spacingLeft=4;spacingRight=4;overflow=hidden;rotatable=0;points=[[0,0.5],[1,0.5]];portConstraint=eastwest;rounded=0;" parent="11" vertex="1">
                    <mxGeometry y="242" width="390" height="26" as="geometry"/>
                </mxCell>
                <mxCell id="96" value="+ calcular_determinante(M: Matriz): float" style="text;strokeColor=none;fillColor=none;align=left;verticalAlign=top;spacingLeft=4;spacingRight=4;overflow=hidden;rotatable=0;points=[[0,0.5],[1,0.5]];portConstraint=eastwest;rounded=0;fontStyle=0" vertex="1" parent="11">
                    <mxGeometry y="268" width="390" height="26" as="geometry"/>
                </mxCell>
                <mxCell id="82" value="model" style="shape=folder;fontStyle=1;tabWidth=110;tabHeight=30;tabPosition=left;html=1;boundedLbl=1;labelInHeader=1;container=1;collapsible=0;recursiveResize=0;glass=0;labelBackgroundColor=default;labelBorderColor=none;comic=0;pointerEvents=0;fontSize=23;strokeColor=#b85450;gradientDirection=south;fillColor=#f8cecc;gradientColor=#ffffff;shadow=1;rounded=0;" parent="1" vertex="1">
                    <mxGeometry x="680" y="414" width="440" height="316" as="geometry"/>
                </mxCell>
                <mxCell id="2" value="#Matriz" style="swimlane;fontStyle=1;align=center;verticalAlign=top;childLayout=stackLayout;horizontal=1;startSize=26;horizontalStack=0;resizeParent=1;resizeParentMax=0;resizeLast=0;collapsible=1;marginBottom=0;rounded=0;" parent="82" vertex="1">
                    <mxGeometry x="25" y="61" width="180" height="242" as="geometry"/>
                </mxCell>
                <mxCell id="3" value="- linha: int" style="text;strokeColor=none;fillColor=none;align=left;verticalAlign=top;spacingLeft=4;spacingRight=4;overflow=hidden;rotatable=0;points=[[0,0.5],[1,0.5]];portConstraint=eastwest;rounded=0;" parent="2" vertex="1">
                    <mxGeometry y="26" width="180" height="26" as="geometry"/>
                </mxCell>
                <mxCell id="6" value="- coluna: int" style="text;strokeColor=none;fillColor=none;align=left;verticalAlign=top;spacingLeft=4;spacingRight=4;overflow=hidden;rotatable=0;points=[[0,0.5],[1,0.5]];portConstraint=eastwest;rounded=0;" parent="2" vertex="1">
                    <mxGeometry y="52" width="180" height="26" as="geometry"/>
                </mxCell>
                <mxCell id="7" value="- valores: ndarray" style="text;strokeColor=none;fillColor=none;align=left;verticalAlign=top;spacingLeft=4;spacingRight=4;overflow=hidden;rotatable=0;points=[[0,0.5],[1,0.5]];portConstraint=eastwest;rounded=0;" parent="2" vertex="1">
                    <mxGeometry y="78" width="180" height="26" as="geometry"/>
                </mxCell>
                <mxCell id="8" value="- erro_matriz: str" style="text;strokeColor=none;fillColor=none;align=left;verticalAlign=top;spacingLeft=4;spacingRight=4;overflow=hidden;rotatable=0;points=[[0,0.5],[1,0.5]];portConstraint=eastwest;rounded=0;" parent="2" vertex="1">
                    <mxGeometry y="104" width="180" height="26" as="geometry"/>
                </mxCell>
                <mxCell id="4" value="" style="line;strokeWidth=1;fillColor=none;align=left;verticalAlign=middle;spacingTop=-1;spacingLeft=3;spacingRight=3;rotatable=0;labelPosition=right;points=[];portConstraint=eastwest;rounded=0;" parent="2" vertex="1">
                    <mxGeometry y="130" width="180" height="8" as="geometry"/>
                </mxCell>
                <mxCell id="5" value="+ mesma_ordem(obj): bool" style="text;strokeColor=none;fillColor=none;align=left;verticalAlign=top;spacingLeft=4;spacingRight=4;overflow=hidden;rotatable=0;points=[[0,0.5],[1,0.5]];portConstraint=eastwest;rounded=0;" parent="2" vertex="1">
                    <mxGeometry y="138" width="180" height="26" as="geometry"/>
                </mxCell>
                <mxCell id="9" value="+ is_quadrada( ): bool" style="text;strokeColor=none;fillColor=none;align=left;verticalAlign=top;spacingLeft=4;spacingRight=4;overflow=hidden;rotatable=0;points=[[0,0.5],[1,0.5]];portConstraint=eastwest;rounded=0;" parent="2" vertex="1">
                    <mxGeometry y="164" width="180" height="26" as="geometry"/>
                </mxCell>
                <mxCell id="10" value="- criar_matriz_nula( ): ndarray" style="text;strokeColor=none;fillColor=none;align=left;verticalAlign=top;spacingLeft=4;spacingRight=4;overflow=hidden;rotatable=0;points=[[0,0.5],[1,0.5]];portConstraint=eastwest;rounded=0;" parent="2" vertex="1">
                    <mxGeometry y="190" width="180" height="26" as="geometry"/>
                </mxCell>
                <mxCell id="95" value="+ ordem( ): int" style="text;strokeColor=none;fillColor=none;align=left;verticalAlign=top;spacingLeft=4;spacingRight=4;overflow=hidden;rotatable=0;points=[[0,0.5],[1,0.5]];portConstraint=eastwest;rounded=0;" vertex="1" parent="2">
                    <mxGeometry y="216" width="180" height="26" as="geometry"/>
                </mxCell>
                <mxCell id="89" value="Os objetos do tipo ndarray devem ser da biblioteca Numpy" style="shape=note2;boundedLbl=1;whiteSpace=wrap;html=1;size=25;verticalAlign=top;align=center;" parent="82" vertex="1">
                    <mxGeometry x="270" y="76" width="120" height="87" as="geometry"/>
                </mxCell>
                <mxCell id="91" value="feature1" style="html=1;verticalAlign=bottom;labelBackgroundColor=none;endArrow=none;endFill=0;endSize=6;align=left;strokeColor=default;entryX=0;entryY=0.5;entryDx=0;entryDy=0;entryPerimeter=0;exitX=1;exitY=0.5;exitDx=0;exitDy=0;fontColor=none;noLabel=1;" parent="82" source="7" target="89" edge="1">
                    <mxGeometry x="-1" relative="1" as="geometry">
                        <mxPoint x="110" y="176" as="sourcePoint"/>
                        <mxPoint x="270" y="176" as="targetPoint"/>
                    </mxGeometry>
                </mxCell>
                <mxCell id="97" value="O método ordem() só retorna a ordem de uma matriz quadrada" style="shape=note2;boundedLbl=1;whiteSpace=wrap;html=1;size=25;verticalAlign=top;align=center;" vertex="1" parent="82">
                    <mxGeometry x="270" y="186" width="120" height="87" as="geometry"/>
                </mxCell>
                <mxCell id="98" value="feature1" style="html=1;verticalAlign=bottom;labelBackgroundColor=none;endArrow=none;endFill=0;endSize=6;align=left;strokeColor=default;entryX=0;entryY=0.5;entryDx=0;entryDy=0;entryPerimeter=0;exitX=1;exitY=0.5;exitDx=0;exitDy=0;fontColor=none;noLabel=1;" edge="1" parent="82" source="95" target="97">
                    <mxGeometry x="-1" relative="1" as="geometry">
                        <mxPoint x="215" y="162" as="sourcePoint"/>
                        <mxPoint x="280" y="129.4999999999999" as="targetPoint"/>
                    </mxGeometry>
                </mxCell>
                <mxCell id="84" value="" style="html=1;verticalAlign=bottom;labelBackgroundColor=none;endArrow=block;endFill=1;fontSize=23;fontColor=none;entryX=0.656;entryY=0.051;entryDx=0;entryDy=0;entryPerimeter=0;strokeWidth=3;exitX=0;exitY=0;exitDx=0;exitDy=190;exitPerimeter=0;" parent="1" source="79" target="77" edge="1">
                    <mxGeometry width="160" relative="1" as="geometry">
                        <mxPoint x="350" y="170" as="sourcePoint"/>
                        <mxPoint x="450" y="460" as="targetPoint"/>
                    </mxGeometry>
                </mxCell>
                <mxCell id="85" value="" style="html=1;verticalAlign=bottom;labelBackgroundColor=none;endArrow=block;endFill=1;fontSize=23;fontColor=none;entryX=0;entryY=0;entryDx=170;entryDy=30;entryPerimeter=0;exitX=0.699;exitY=0.998;exitDx=0;exitDy=0;exitPerimeter=0;strokeWidth=3;" parent="1" source="79" target="82" edge="1">
                    <mxGeometry width="160" relative="1" as="geometry">
                        <mxPoint x="425" y="390" as="sourcePoint"/>
                        <mxPoint x="345" y="550" as="targetPoint"/>
                    </mxGeometry>
                </mxCell>
                <mxCell id="86" value="" style="html=1;verticalAlign=bottom;labelBackgroundColor=none;endArrow=block;endFill=1;fontSize=23;fontColor=none;strokeWidth=3;exitX=1;exitY=0.594;exitDx=0;exitDy=0;exitPerimeter=0;entryX=0;entryY=0;entryDx=0;entryDy=165;entryPerimeter=0;" parent="1" source="77" target="82" edge="1">
                    <mxGeometry width="160" relative="1" as="geometry">
                        <mxPoint x="785" y="540" as="sourcePoint"/>
                        <mxPoint x="860" y="570" as="targetPoint"/>
                    </mxGeometry>
                </mxCell>
                <mxCell id="87" value="" style="html=1;verticalAlign=bottom;labelBackgroundColor=none;endArrow=block;endFill=1;dashed=1;fontSize=23;fontColor=none;strokeWidth=3;exitX=0.401;exitY=0.071;exitDx=0;exitDy=0;exitPerimeter=0;entryX=0;entryY=0;entryDx=0;entryDy=110;entryPerimeter=0;" parent="1" source="77" target="79" edge="1">
                    <mxGeometry width="160" relative="1" as="geometry">
                        <mxPoint x="150" y="280" as="sourcePoint"/>
                        <mxPoint x="310" y="280" as="targetPoint"/>
                    </mxGeometry>
                </mxCell>
                <mxCell id="88" value="" style="html=1;verticalAlign=bottom;labelBackgroundColor=none;endArrow=block;endFill=1;dashed=1;fontSize=23;fontColor=none;strokeWidth=3;exitX=0;exitY=0;exitDx=0;exitDy=97.5;exitPerimeter=0;" parent="1" source="82" edge="1">
                    <mxGeometry width="160" relative="1" as="geometry">
                        <mxPoint x="228.51999999999998" y="364.78999999999996" as="sourcePoint"/>
                        <mxPoint x="530" y="513" as="targetPoint"/>
                    </mxGeometry>
                </mxCell>
            </root>
        </mxGraphModel>
    </diagram>
</mxfile>